<svg xmlns="http://www.w3.org/2000/svg" xmlns:xlink="http://www.w3.org/1999/xlink" width="500" zoomAndPan="magnify" viewBox="0 0 375 187.499995" height="250" preserveAspectRatio="xMidYMid meet" version="1.0"><defs><g/><clipPath id="3a4625d3f7"><path d="M 0.5 0 L 364 0 L 364 136 L 0.5 136 Z M 0.5 0 " clip-rule="nonzero"/></clipPath><clipPath id="9a9ab4e371"><path d="M 0.5 0 L 325 0 L 325 135.957031 L 0.5 135.957031 Z M 0.5 0 " clip-rule="nonzero"/></clipPath><clipPath id="c4d29019ed"><rect x="0" width="325" y="0" height="136"/></clipPath><clipPath id="8f9de4a72a"><path d="M 266 3 L 344 3 L 344 91 L 266 91 Z M 266 3 " clip-rule="nonzero"/></clipPath><clipPath id="9c0a01e19e"><path d="M 323.851562 90.664062 L 266.847656 19.375 L 286.601562 3.582031 L 343.609375 74.867188 Z M 323.851562 90.664062 " clip-rule="nonzero"/></clipPath><clipPath id="a5b5b0b7a5"><path d="M 0.667969 0.351562 L 77.742188 0.351562 L 77.742188 87.71875 L 0.667969 87.71875 Z M 0.667969 0.351562 " clip-rule="nonzero"/></clipPath><clipPath id="4ce5841553"><path d="M 57.851562 87.664062 L 0.847656 16.375 L 20.601562 0.582031 L 77.609375 71.867188 Z M 57.851562 87.664062 " clip-rule="nonzero"/></clipPath><clipPath id="94cf96be19"><rect x="0" width="78" y="0" height="88"/></clipPath><clipPath id="088aed230f"><path d="M 266 3 L 363.132812 3 L 363.132812 97 L 266 97 Z M 266 3 " clip-rule="nonzero"/></clipPath><clipPath id="837cb7ecf0"><path d="M 271.570312 3.585938 L 363.351562 8.496094 L 358.632812 96.710938 L 266.851562 91.800781 Z M 271.570312 3.585938 " clip-rule="nonzero"/></clipPath><clipPath id="0e4f7631ca"><path d="M 52 35 L 95 35 L 95 57 L 52 57 Z M 52 35 " clip-rule="nonzero"/></clipPath><clipPath id="ef1ebc6d11"><path d="M 5.570312 0.585938 L 97.351562 5.496094 L 92.632812 93.710938 L 0.851562 88.800781 Z M 5.570312 0.585938 " clip-rule="nonzero"/></clipPath><clipPath id="49e757b349"><path d="M 97.042969 5.480469 L 5.265625 0.570312 L 0.546875 88.785156 L 92.324219 93.695312 Z M 97.042969 5.480469 " clip-rule="nonzero"/></clipPath><clipPath id="29618e6653"><path d="M 5 12 L 41 12 L 41 38 L 5 38 Z M 5 12 " clip-rule="nonzero"/></clipPath><clipPath id="d6aaa75eec"><path d="M 5.570312 0.585938 L 97.351562 5.496094 L 92.632812 93.710938 L 0.851562 88.800781 Z M 5.570312 0.585938 " clip-rule="nonzero"/></clipPath><clipPath id="e46c7c9cc9"><path d="M 97.042969 5.480469 L 5.265625 0.570312 L 0.546875 88.785156 L 92.324219 93.695312 Z M 97.042969 5.480469 " clip-rule="nonzero"/></clipPath><clipPath id="c1bbb85d0c"><path d="M 16 1 L 73 1 L 73 92 L 16 92 Z M 16 1 " clip-rule="nonzero"/></clipPath><clipPath id="4d43256de4"><path d="M 5.570312 0.585938 L 97.351562 5.496094 L 92.632812 93.710938 L 0.851562 88.800781 Z M 5.570312 0.585938 " clip-rule="nonzero"/></clipPath><clipPath id="4b6eea2a14"><path d="M 97.042969 5.480469 L 5.265625 0.570312 L 0.546875 88.785156 L 92.324219 93.695312 Z M 97.042969 5.480469 " clip-rule="nonzero"/></clipPath><clipPath id="d121c212c8"><rect x="0" width="98" y="0" height="94"/></clipPath><clipPath id="1175d09451"><rect x="0" width="364" y="0" height="136"/></clipPath><clipPath id="977240d52c"><rect x="0" width="104" y="0" height="109"/></clipPath></defs><g clip-path="url(#3a4625d3f7)"><g transform="matrix(1, 0, 0, 1, 0, 0)"><g clip-path="url(#1175d09451)"><g clip-path="url(#9a9ab4e371)"><g transform="matrix(1, 0, 0, 1, 0, 0)"><g clip-path="url(#c4d29019ed)"><g fill="#8c52ff" fill-opacity="1"><g transform="translate(-0.105516, 99.182205)"><g><path d="M 47.15625 1.25 C 38.78125 1.25 31.289062 -0.421875 24.6875 -3.765625 C 18.082031 -7.117188 12.941406 -11.769531 9.265625 -17.71875 C 5.597656 -23.664062 3.765625 -30.410156 3.765625 -37.953125 C 3.765625 -45.484375 5.597656 -52.203125 9.265625 -58.109375 C 12.941406 -64.015625 18.082031 -68.617188 24.6875 -71.921875 C 31.289062 -75.222656 38.78125 -76.875 47.15625 -76.875 C 55.707031 -76.875 63.097656 -75.035156 69.328125 -71.359375 C 75.566406 -67.679688 79.988281 -62.585938 82.59375 -56.078125 L 62.078125 -45.625 C 58.640625 -52.414062 53.617188 -55.8125 47.015625 -55.8125 C 42.273438 -55.8125 38.34375 -54.226562 35.21875 -51.0625 C 32.101562 -47.894531 30.546875 -43.523438 30.546875 -37.953125 C 30.546875 -32.273438 32.101562 -27.832031 35.21875 -24.625 C 38.34375 -21.414062 42.273438 -19.8125 47.015625 -19.8125 C 53.617188 -19.8125 58.640625 -23.207031 62.078125 -30 L 82.59375 -19.53125 C 79.988281 -13.019531 75.566406 -7.925781 69.328125 -4.25 C 63.097656 -0.582031 55.707031 1.25 47.15625 1.25 Z M 47.15625 1.25 "/></g></g></g><g fill="#8c52ff" fill-opacity="1"><g transform="translate(69.232602, 99.182205)"><g><path d="M 46.453125 1.25 C 38.367188 1.25 31.066406 -0.421875 24.546875 -3.765625 C 18.035156 -7.117188 12.941406 -11.769531 9.265625 -17.71875 C 5.597656 -23.664062 3.765625 -30.410156 3.765625 -37.953125 C 3.765625 -45.390625 5.597656 -52.082031 9.265625 -58.03125 C 12.941406 -63.988281 18.015625 -68.617188 24.484375 -71.921875 C 30.953125 -75.222656 38.273438 -76.875 46.453125 -76.875 C 54.640625 -76.875 61.988281 -75.222656 68.5 -71.921875 C 75.007812 -68.617188 80.078125 -64.015625 83.703125 -58.109375 C 87.335938 -52.203125 89.15625 -45.484375 89.15625 -37.953125 C 89.15625 -30.410156 87.335938 -23.664062 83.703125 -17.71875 C 80.078125 -11.769531 75.007812 -7.117188 68.5 -3.765625 C 61.988281 -0.421875 54.640625 1.25 46.453125 1.25 Z M 46.453125 -19.8125 C 51.109375 -19.8125 54.921875 -21.414062 57.890625 -24.625 C 60.867188 -27.832031 62.359375 -32.273438 62.359375 -37.953125 C 62.359375 -43.523438 60.867188 -47.894531 57.890625 -51.0625 C 54.921875 -54.226562 51.109375 -55.8125 46.453125 -55.8125 C 41.804688 -55.8125 37.992188 -54.226562 35.015625 -51.0625 C 32.035156 -47.894531 30.546875 -43.523438 30.546875 -37.953125 C 30.546875 -32.273438 32.035156 -27.832031 35.015625 -24.625 C 37.992188 -21.414062 41.804688 -19.8125 46.453125 -19.8125 Z M 46.453125 -19.8125 "/></g></g></g><g fill="#8c52ff" fill-opacity="1"><g transform="translate(147.360028, 99.182205)"><g><path d="M 33.765625 -66.546875 C 36.460938 -69.992188 39.972656 -72.578125 44.296875 -74.296875 C 48.617188 -76.015625 53.570312 -76.875 59.15625 -76.875 L 59.15625 -53.015625 C 56.738281 -53.296875 54.738281 -53.4375 53.15625 -53.4375 C 47.476562 -53.4375 43.035156 -51.898438 39.828125 -48.828125 C 36.617188 -45.753906 35.015625 -41.054688 35.015625 -34.734375 L 35.015625 0 L 8.515625 0 L 8.515625 -75.625 L 33.765625 -75.625 Z M 33.765625 -66.546875 "/></g></g></g><g fill="#8c52ff" fill-opacity="1"><g transform="translate(194.376002, 99.182205)"><g><path d="M 60.6875 -3.0625 C 58.457031 -1.675781 55.738281 -0.613281 52.53125 0.125 C 49.320312 0.875 45.898438 1.25 42.265625 1.25 C 32.410156 1.25 24.832031 -1.164062 19.53125 -6 C 14.226562 -10.832031 11.578125 -18.039062 11.578125 -27.625 L 11.578125 -53.015625 L 0.5625 -53.015625 L 0.5625 -72.828125 L 11.578125 -72.828125 L 11.578125 -92.5 L 38.09375 -92.5 L 38.09375 -72.828125 L 55.390625 -72.828125 L 55.390625 -53.015625 L 38.09375 -53.015625 L 38.09375 -27.90625 C 38.09375 -25.207031 38.8125 -23.085938 40.25 -21.546875 C 41.6875 -20.015625 43.617188 -19.25 46.046875 -19.25 C 49.109375 -19.25 51.800781 -20.039062 54.125 -21.625 Z M 60.6875 -3.0625 "/></g></g></g><g fill="#8c52ff" fill-opacity="1"><g transform="translate(241.950025, 99.182205)"><g><path d="M 40.734375 -76.875 C 53.296875 -76.875 62.878906 -74.015625 69.484375 -68.296875 C 76.085938 -62.578125 79.390625 -53.8125 79.390625 -42 L 79.390625 0 L 54.6875 0 L 54.6875 -9.765625 C 50.875 -2.421875 43.4375 1.25 32.375 1.25 C 26.507812 1.25 21.4375 0.226562 17.15625 -1.8125 C 12.882812 -3.863281 9.65625 -6.628906 7.46875 -10.109375 C 5.28125 -13.597656 4.1875 -17.578125 4.1875 -22.046875 C 4.1875 -29.203125 6.925781 -34.753906 12.40625 -38.703125 C 17.894531 -42.660156 26.363281 -44.640625 37.8125 -44.640625 L 52.875 -44.640625 C 52.40625 -52.640625 47.054688 -56.640625 36.828125 -56.640625 C 33.203125 -56.640625 29.53125 -56.054688 25.8125 -54.890625 C 22.09375 -53.734375 18.929688 -52.132812 16.328125 -50.09375 L 7.390625 -68.078125 C 11.578125 -70.867188 16.671875 -73.03125 22.671875 -74.5625 C 28.671875 -76.101562 34.691406 -76.875 40.734375 -76.875 Z M 39.765625 -15.484375 C 42.828125 -15.484375 45.519531 -16.226562 47.84375 -17.71875 C 50.175781 -19.207031 51.851562 -21.394531 52.875 -24.28125 L 52.875 -30.828125 L 41.4375 -30.828125 C 33.71875 -30.828125 29.859375 -28.269531 29.859375 -23.15625 C 29.859375 -20.832031 30.738281 -18.972656 32.5 -17.578125 C 34.269531 -16.179688 36.691406 -15.484375 39.765625 -15.484375 Z M 39.765625 -15.484375 "/></g></g></g></g></g></g><g clip-path="url(#8f9de4a72a)"><g clip-path="url(#9c0a01e19e)"><g transform="matrix(1, 0, 0, 1, 266, 3)"><g clip-path="url(#94cf96be19)"><g clip-path="url(#a5b5b0b7a5)"><g clip-path="url(#4ce5841553)"><path fill="#121418" d="M 57.851562 87.664062 L 0.839844 16.363281 L 20.59375 0.566406 L 77.609375 71.867188 Z M 57.851562 87.664062 " fill-opacity="1" fill-rule="nonzero"/></g></g></g></g></g></g><g clip-path="url(#088aed230f)"><g clip-path="url(#837cb7ecf0)"><g transform="matrix(1, 0, 0, 1, 266, 3)"><g clip-path="url(#d121c212c8)"><g clip-path="url(#0e4f7631ca)"><g clip-path="url(#ef1ebc6d11)"><g clip-path="url(#49e757b349)"><path fill="#8c52ff" d="M 75.738281 52.671875 C 72.363281 48.882812 70.289062 43.667969 65.289062 41.71875 C 61.605469 40.269531 56.925781 40.324219 53.140625 40.761719 C 53.144531 40.121094 53.175781 39.542969 53.199219 39.085938 C 53.273438 37.714844 52.828125 36.34375 52.03125 35.230469 C 57.804688 38.75 61.726562 37.433594 63.332031 36.539062 C 63.804688 36.289062 64.382812 36.351562 64.761719 36.738281 C 67.917969 39.996094 73.800781 40.308594 78.046875 38.671875 C 84.789062 36.066406 95.226562 39.285156 94.421875 47.984375 C 93.765625 55.132812 85.195312 58.222656 79.320312 55.429688 C 78.597656 55.761719 77.164062 56.292969 76.15625 55.75 C 74.691406 55.0625 75.738281 52.671875 75.738281 52.671875 Z M 83.710938 52.242188 C 87.574219 52.570312 90.9375 50.304688 91.195312 47.171875 C 91.457031 44.035156 88.515625 41.25 84.652344 40.921875 C 80.785156 40.589844 77.425781 42.855469 77.164062 45.992188 C 76.90625 49.128906 79.84375 51.914062 83.710938 52.242188 Z M 83.710938 52.242188 " fill-opacity="1" fill-rule="nonzero"/></g></g></g><g clip-path="url(#29618e6653)"><g clip-path="url(#d6aaa75eec)"><g clip-path="url(#e46c7c9cc9)"><path fill="#8c52ff" d="M 40.242188 37.902344 L 5.308594 13.136719 C 4.925781 12.871094 5.261719 12.308594 5.679688 12.484375 C 10.839844 14.867188 20.773438 19.464844 30.164062 23.972656 C 33.773438 29.089844 37.328125 34.046875 40.242188 37.902344 Z M 40.242188 37.902344 " fill-opacity="1" fill-rule="nonzero"/></g></g></g><g clip-path="url(#c1bbb85d0c)"><g clip-path="url(#4d43256de4)"><g clip-path="url(#4b6eea2a14)"><path fill="#8c52ff" d="M 65.214844 83.6875 C 57.316406 85.039062 52.769531 75.714844 54.175781 68.882812 C 55.085938 64.4375 53.773438 58.679688 50.058594 56.128906 C 49.613281 55.828125 49.460938 55.242188 49.609375 54.757812 C 50.226562 52.988281 50.914062 48.652344 46.003906 43.347656 C 40.683594 37.589844 22.648438 11.3125 16.269531 1.984375 C 16.015625 1.601562 16.527344 1.171875 16.84375 1.492188 L 50.589844 35.308594 C 51.578125 36.308594 52.117188 37.652344 52.039062 39.054688 C 51.871094 42.804688 51.96875 50.695312 55.023438 55.84375 C 58.109375 61.023438 64.636719 61.859375 69.066406 65.398438 C 74.226562 69.527344 74.136719 78.632812 68.804688 82.292969 C 69.40625 86.449219 65.066406 92.179688 63.519531 91.882812 C 62.253906 91.601562 66.214844 87.226562 65.214844 83.6875 Z M 47.753906 38.027344 C 48.15625 37.410156 47.984375 36.605469 47.359375 36.234375 C 46.742188 35.835938 45.9375 36.007812 45.566406 36.628906 C 45.199219 37.25 45.339844 38.054688 45.960938 38.421875 C 46.550781 38.789062 47.386719 38.621094 47.753906 38.027344 Z M 64.742188 80.484375 C 67.78125 79.699219 69.476562 76.03125 68.515625 72.25 C 67.554688 68.496094 64.292969 66.0625 61.253906 66.847656 C 58.214844 67.632812 56.519531 71.300781 57.480469 75.082031 C 58.441406 78.832031 61.703125 81.269531 64.742188 80.484375 Z M 64.742188 80.484375 " fill-opacity="1" fill-rule="nonzero"/></g></g></g></g></g></g></g></g></g></g><g transform="matrix(1, 0, 0, 1, 221, 78)"><g clip-path="url(#977240d52c)"><g fill="#8c52ff" fill-opacity="1"><g transform="translate(2.174463, 105.194198)"><g><path d="M 31.296875 -59.0625 C 40.953125 -59.0625 48.316406 -56.863281 53.390625 -52.46875 C 58.460938 -48.082031 61 -41.347656 61 -32.265625 L 61 0 L 42.03125 0 L 42.03125 -7.5 C 39.09375 -1.851562 33.375 0.96875 24.875 0.96875 C 20.375 0.96875 16.476562 0.179688 13.1875 -1.390625 C 9.894531 -2.960938 7.410156 -5.085938 5.734375 -7.765625 C 4.054688 -10.453125 3.21875 -13.507812 3.21875 -16.9375 C 3.21875 -22.4375 5.320312 -26.707031 9.53125 -29.75 C 13.75 -32.789062 20.253906 -34.3125 29.046875 -34.3125 L 40.625 -34.3125 C 40.269531 -40.457031 36.160156 -43.53125 28.296875 -43.53125 C 25.515625 -43.53125 22.691406 -43.082031 19.828125 -42.1875 C 16.972656 -41.289062 14.546875 -40.054688 12.546875 -38.484375 L 5.6875 -52.3125 C 8.894531 -54.457031 12.800781 -56.117188 17.40625 -57.296875 C 22.019531 -58.472656 26.648438 -59.0625 31.296875 -59.0625 Z M 30.546875 -11.90625 C 32.910156 -11.90625 34.984375 -12.472656 36.765625 -13.609375 C 38.554688 -14.753906 39.84375 -16.4375 40.625 -18.65625 L 40.625 -23.6875 L 31.84375 -23.6875 C 25.90625 -23.6875 22.9375 -21.722656 22.9375 -17.796875 C 22.9375 -16.003906 23.613281 -14.570312 24.96875 -13.5 C 26.332031 -12.4375 28.191406 -11.90625 30.546875 -11.90625 Z M 30.546875 -11.90625 "/></g></g></g><g fill="#8c52ff" fill-opacity="1"><g transform="translate(58.138342, 105.194198)"><g><path d="M 6.546875 -58.109375 L 26.90625 -58.109375 L 26.90625 0 L 6.546875 0 Z M 20.59375 -81.359375 L 40.953125 -81.359375 L 20.796875 -65.078125 L 6.21875 -65.078125 Z M 20.59375 -81.359375 "/></g></g></g></g></g></svg>