<svg xmlns="http://www.w3.org/2000/svg" xmlns:xlink="http://www.w3.org/1999/xlink" width="500" zoomAndPan="magnify" viewBox="0 0 375 299.999988" height="400" preserveAspectRatio="xMidYMid meet" version="1.0"><defs><g/><clipPath id="a261830bb6"><rect x="0" width="177" y="0" height="243"/></clipPath><clipPath id="e9f37933f7"><path d="M 176 91 L 261 91 L 261 215 L 176 215 Z M 176 91 " clip-rule="nonzero"/></clipPath><clipPath id="36826cccad"><path d="M 212.625 91.675781 L 260.199219 198.148438 L 224.488281 214.105469 L 176.910156 107.632812 Z M 212.625 91.675781 " clip-rule="nonzero"/></clipPath><clipPath id="34f58685a9"><path d="M 0.878906 0.441406 L 84.398438 0.441406 L 84.398438 123.320312 L 0.878906 123.320312 Z M 0.878906 0.441406 " clip-rule="nonzero"/></clipPath><clipPath id="414072c900"><path d="M 36.625 0.675781 L 84.199219 107.148438 L 48.488281 123.105469 L 0.910156 16.632812 Z M 36.625 0.675781 " clip-rule="nonzero"/></clipPath><clipPath id="cf238e729c"><rect x="0" width="85" y="0" height="124"/></clipPath><clipPath id="2c2e99bf2e"><path d="M 103 63 L 334 63 L 334 290 L 103 290 Z M 103 63 " clip-rule="nonzero"/></clipPath><clipPath id="77c219a1aa"><path d="M 176.449219 62.785156 L 333.242188 138.230469 L 260.398438 289.617188 L 103.605469 214.167969 Z M 176.449219 62.785156 " clip-rule="nonzero"/></clipPath><clipPath id="170c8c867a"><path d="M 127 94 L 197 94 L 197 158 L 127 158 Z M 127 94 " clip-rule="nonzero"/></clipPath><clipPath id="b762199edb"><path d="M 73.449219 -0.214844 L 230.242188 75.230469 L 157.398438 226.617188 L 0.605469 151.167969 Z M 73.449219 -0.214844 " clip-rule="nonzero"/></clipPath><clipPath id="ebcc6aea2f"><path d="M 230.472656 75.339844 L 73.683594 -0.105469 L 0.835938 151.28125 L 157.628906 226.726562 Z M 230.472656 75.339844 " clip-rule="nonzero"/></clipPath><clipPath id="d627aa5536"><path d="M 63 20 L 108 20 L 108 91 L 63 91 Z M 63 20 " clip-rule="nonzero"/></clipPath><clipPath id="0d1dfe24cd"><path d="M 73.449219 -0.214844 L 230.242188 75.230469 L 157.398438 226.617188 L 0.605469 151.167969 Z M 73.449219 -0.214844 " clip-rule="nonzero"/></clipPath><clipPath id="03e869914c"><path d="M 230.472656 75.339844 L 73.683594 -0.105469 L 0.835938 151.28125 L 157.628906 226.726562 Z M 230.472656 75.339844 " clip-rule="nonzero"/></clipPath><clipPath id="7eccd00f9d"><path d="M 91 9 L 140 9 L 140 203 L 91 203 Z M 91 9 " clip-rule="nonzero"/></clipPath><clipPath id="01b0bc5ff7"><path d="M 73.449219 -0.214844 L 230.242188 75.230469 L 157.398438 226.617188 L 0.605469 151.167969 Z M 73.449219 -0.214844 " clip-rule="nonzero"/></clipPath><clipPath id="0e6147dac4"><path d="M 230.472656 75.339844 L 73.683594 -0.105469 L 0.835938 151.28125 L 157.628906 226.726562 Z M 230.472656 75.339844 " clip-rule="nonzero"/></clipPath><clipPath id="81d371d1a0"><rect x="0" width="231" y="0" height="227"/></clipPath></defs><g transform="matrix(1, 0, 0, 1, 86, 0)"><g clip-path="url(#a261830bb6)"><g fill="#8c52ff" fill-opacity="1"><g transform="translate(5.237605, 167.769927)"><g><path d="M 96.078125 2.5625 C 79.023438 2.5625 63.769531 -0.847656 50.3125 -7.671875 C 36.851562 -14.492188 26.378906 -23.96875 18.890625 -36.09375 C 11.410156 -48.226562 7.671875 -61.96875 7.671875 -77.3125 C 7.671875 -92.664062 11.410156 -106.359375 18.890625 -118.390625 C 26.378906 -130.429688 36.851562 -139.8125 50.3125 -146.53125 C 63.769531 -153.257812 79.023438 -156.625 96.078125 -156.625 C 113.515625 -156.625 128.582031 -152.878906 141.28125 -145.390625 C 153.976562 -137.910156 162.976562 -127.539062 168.28125 -114.28125 L 126.5 -92.953125 C 119.488281 -106.785156 109.253906 -113.703125 95.796875 -113.703125 C 86.128906 -113.703125 78.117188 -110.476562 71.765625 -104.03125 C 65.421875 -97.59375 62.25 -88.6875 62.25 -77.3125 C 62.25 -65.757812 65.421875 -56.710938 71.765625 -50.171875 C 78.117188 -43.628906 86.128906 -40.359375 95.796875 -40.359375 C 109.253906 -40.359375 119.488281 -47.273438 126.5 -61.109375 L 168.28125 -39.796875 C 162.976562 -26.535156 153.976562 -16.160156 141.28125 -8.671875 C 128.582031 -1.179688 113.515625 2.5625 96.078125 2.5625 Z M 96.078125 2.5625 "/></g></g></g></g></g><g clip-path="url(#e9f37933f7)"><g clip-path="url(#36826cccad)"><g transform="matrix(1, 0, 0, 1, 176, 91)"><g clip-path="url(#cf238e729c)"><g clip-path="url(#34f58685a9)"><g clip-path="url(#414072c900)"><path fill="#121418" d="M 36.625 0.675781 L 84.1875 107.121094 L 48.472656 123.078125 L 0.910156 16.632812 Z M 36.625 0.675781 " fill-opacity="1" fill-rule="nonzero"/></g></g></g></g></g></g><g clip-path="url(#2c2e99bf2e)"><g clip-path="url(#77c219a1aa)"><g transform="matrix(1, 0, 0, 1, 103, 63)"><g clip-path="url(#81d371d1a0)"><g clip-path="url(#170c8c867a)"><g clip-path="url(#b762199edb)"><g clip-path="url(#ebcc6aea2f)"><path fill="#8c52ff" d="M 158.515625 142.601562 C 155.363281 133.480469 155.539062 122.804688 148.1875 115.722656 C 142.78125 110.480469 134.523438 107.148438 127.558594 105.152344 C 128.035156 104.027344 128.515625 103.03125 128.890625 102.25 C 130.023438 99.894531 130.242188 97.164062 129.660156 94.625 C 137.21875 105.03125 145.070312 105.585938 148.546875 105.195312 C 149.558594 105.101562 150.527344 105.632812 150.90625 106.589844 C 154.066406 114.617188 164.164062 119.480469 172.816406 119.710938 C 186.5625 120.074219 202.53125 133.363281 194.753906 148.054688 C 188.363281 160.125 171.054688 159.269531 162.785156 150.070312 C 161.277344 150.117188 158.367188 150.007812 156.992188 148.3125 C 154.929688 146.035156 158.515625 142.601562 158.515625 142.601562 Z M 172.824219 147.683594 C 179.371094 151.089844 186.933594 149.574219 189.683594 144.257812 C 192.433594 138.945312 189.3125 131.902344 182.769531 128.496094 C 176.222656 125.085938 168.664062 126.605469 165.910156 131.917969 C 163.160156 137.234375 166.28125 144.277344 172.824219 147.683594 Z M 172.824219 147.683594 " fill-opacity="1" fill-rule="nonzero"/></g></g></g><g clip-path="url(#d627aa5536)"><g clip-path="url(#0d1dfe24cd)"><g clip-path="url(#03e869914c)"><path fill="#8c52ff" d="M 107.003906 90.683594 L 63.800781 21.628906 C 63.324219 20.882812 64.324219 20.140625 64.929688 20.753906 C 72.246094 28.71875 86.324219 44.066406 99.507812 58.851562 C 102.097656 70.472656 104.710938 81.785156 107.003906 90.683594 Z M 107.003906 90.683594 " fill-opacity="1" fill-rule="nonzero"/></g></g></g><g clip-path="url(#7eccd00f9d)"><g clip-path="url(#01b0bc5ff7)"><g clip-path="url(#0e6147dac4)"><path fill="#8c52ff" d="M 117.332031 189.355469 C 102.472656 185.945312 101.316406 166.25 108.789062 155.277344 C 113.640625 148.140625 115.550781 137.074219 110.894531 129.871094 C 110.335938 129.023438 110.5 127.875 111.113281 127.140625 C 113.488281 124.480469 117.875 117.375 113.132812 104.460938 C 108.011719 90.460938 95.582031 31.121094 91.210938 10.070312 C 91.039062 9.214844 92.253906 8.832031 92.578125 9.632812 L 127.074219 93.703125 C 128.074219 96.183594 128.035156 98.9375 126.878906 101.34375 C 123.832031 107.804688 118.226562 121.734375 119.824219 133.007812 C 121.453125 144.359375 132.300781 150.609375 137.484375 160.0625 C 143.519531 171.089844 136.695312 187.011719 124.65625 189.53125 C 122.671875 197.273438 110.851562 204.15625 108.359375 202.503906 C 106.339844 201.082031 116.5 196.304688 117.332031 189.355469 Z M 120.101562 96.40625 C 121.257812 95.609375 121.546875 94.074219 120.726562 92.96875 C 119.929688 91.8125 118.390625 91.523438 117.289062 92.347656 C 116.183594 93.167969 115.84375 94.679688 116.664062 95.785156 C 117.433594 96.863281 119.023438 97.175781 120.101562 96.40625 Z M 118.851562 183.382812 C 124.757812 184.230469 130.417969 179.027344 131.503906 171.6875 C 132.5625 164.398438 128.617188 157.730469 122.707031 156.886719 C 116.800781 156.039062 111.136719 161.242188 110.054688 168.582031 C 108.996094 175.871094 112.941406 182.539062 118.851562 183.382812 Z M 118.851562 183.382812 " fill-opacity="1" fill-rule="nonzero"/></g></g></g></g></g></g></g></svg>