<svg xmlns="http://www.w3.org/2000/svg" xmlns:xlink="http://www.w3.org/1999/xlink" width="500" zoomAndPan="magnify" viewBox="0 0 375 187.499995" height="250" preserveAspectRatio="xMidYMid meet" version="1.0"><defs><g/><clipPath id="6971e67886"><path d="M 0.5 0 L 374.5 0 L 374.5 187 L 0.5 187 Z M 0.5 0 " clip-rule="nonzero"/></clipPath><clipPath id="ecceff3812"><path d="M 0.5 53 L 353 53 L 353 187 L 0.5 187 Z M 0.5 53 " clip-rule="nonzero"/></clipPath><clipPath id="20b931d169"><rect x="0" width="353" y="0" height="134"/></clipPath><clipPath id="fbeb2e2186"><path d="M 289 81 L 355 81 L 355 155 L 289 155 Z M 289 81 " clip-rule="nonzero"/></clipPath><clipPath id="36aed1b626"><path d="M 337.765625 154.078125 L 289.980469 94.320312 L 306.542969 81.078125 L 354.324219 140.835938 Z M 337.765625 154.078125 " clip-rule="nonzero"/></clipPath><clipPath id="6b34a4ff68"><path d="M 0.886719 0 L 65.515625 0 L 65.515625 73.148438 L 0.886719 73.148438 Z M 0.886719 0 " clip-rule="nonzero"/></clipPath><clipPath id="1873abd8fb"><path d="M 48.765625 73.078125 L 0.980469 13.320312 L 17.542969 0.078125 L 65.324219 59.835938 Z M 48.765625 73.078125 " clip-rule="nonzero"/></clipPath><clipPath id="01c2350c98"><rect x="0" width="66" y="0" height="74"/></clipPath><clipPath id="576aab3290"><path d="M 277 81 L 374.5 81 L 374.5 183 L 277 183 Z M 277 81 " clip-rule="nonzero"/></clipPath><clipPath id="784ae42b27"><path d="M 295.105469 81.085938 L 381.28125 99.855469 L 363.234375 182.714844 L 277.058594 163.945312 Z M 295.105469 81.085938 " clip-rule="nonzero"/></clipPath><clipPath id="ed51c27cdd"><path d="M 56 40 L 96 40 L 96 66 L 56 66 Z M 56 40 " clip-rule="nonzero"/></clipPath><clipPath id="10990941ba"><path d="M 18.105469 0.0859375 L 104.28125 18.855469 L 86.234375 101.714844 L 0.0585938 82.945312 Z M 18.105469 0.0859375 " clip-rule="nonzero"/></clipPath><clipPath id="e481cd10ea"><path d="M 103.917969 18.773438 L 17.742188 0.0078125 L -0.304688 82.867188 L 85.871094 101.636719 Z M 103.917969 18.773438 " clip-rule="nonzero"/></clipPath><clipPath id="3c4baf7012"><path d="M 15 11 L 46 11 L 46 41 L 15 41 Z M 15 11 " clip-rule="nonzero"/></clipPath><clipPath id="1aaba514e6"><path d="M 18.105469 0.0859375 L 104.28125 18.855469 L 86.234375 101.714844 L 0.0585938 82.945312 Z M 18.105469 0.0859375 " clip-rule="nonzero"/></clipPath><clipPath id="74e97f716e"><path d="M 103.917969 18.773438 L 17.742188 0.0078125 L -0.304688 82.867188 L 85.871094 101.636719 Z M 103.917969 18.773438 " clip-rule="nonzero"/></clipPath><clipPath id="b9787f9316"><path d="M 27 2 L 71 2 L 71 96 L 27 96 Z M 27 2 " clip-rule="nonzero"/></clipPath><clipPath id="5491b6ea23"><path d="M 18.105469 0.0859375 L 104.28125 18.855469 L 86.234375 101.714844 L 0.0585938 82.945312 Z M 18.105469 0.0859375 " clip-rule="nonzero"/></clipPath><clipPath id="0bc47649d8"><path d="M 103.917969 18.773438 L 17.742188 0.0078125 L -0.304688 82.867188 L 85.871094 101.636719 Z M 103.917969 18.773438 " clip-rule="nonzero"/></clipPath><clipPath id="617126bab9"><rect x="0" width="98" y="0" height="102"/></clipPath><clipPath id="9349821998"><rect x="0" width="193" y="0" height="142"/></clipPath><clipPath id="648e436103"><rect x="0" width="375" y="0" height="187"/></clipPath></defs><g clip-path="url(#6971e67886)"><g transform="matrix(1, 0, 0, 1, 0, 0)"><g clip-path="url(#648e436103)"><g clip-path="url(#ecceff3812)"><g transform="matrix(1, 0, 0, 1, 0, 53)"><g clip-path="url(#20b931d169)"><g fill="#8c52ff" fill-opacity="1"><g transform="translate(-2.70381, 115.065877)"><g><path d="M 47.015625 -64.4375 C 52.785156 -64.4375 58.03125 -63.109375 62.75 -60.453125 C 67.46875 -57.804688 71.207031 -54.007812 73.96875 -49.0625 C 76.738281 -44.113281 78.125 -38.363281 78.125 -31.8125 C 78.125 -25.257812 76.738281 -19.488281 73.96875 -14.5 C 71.207031 -9.507812 67.46875 -5.671875 62.75 -2.984375 C 58.03125 -0.296875 52.785156 1.046875 47.015625 1.046875 C 38.671875 1.046875 32.429688 -1.40625 28.296875 -6.3125 L 28.296875 0 L 7.140625 0 L 7.140625 -86.78125 L 29.359375 -86.78125 L 29.359375 -57.890625 C 33.640625 -62.253906 39.523438 -64.4375 47.015625 -64.4375 Z M 42.34375 -16.609375 C 46.238281 -16.609375 49.429688 -17.953125 51.921875 -20.640625 C 54.421875 -23.328125 55.671875 -27.050781 55.671875 -31.8125 C 55.671875 -36.488281 54.421875 -40.148438 51.921875 -42.796875 C 49.429688 -45.453125 46.238281 -46.78125 42.34375 -46.78125 C 38.4375 -46.78125 35.234375 -45.453125 32.734375 -42.796875 C 30.242188 -40.148438 29 -36.488281 29 -31.8125 C 29 -27.050781 30.242188 -23.328125 32.734375 -20.640625 C 35.234375 -17.953125 38.4375 -16.609375 42.34375 -16.609375 Z M 42.34375 -16.609375 "/></g></g></g><g fill="#8c52ff" fill-opacity="1"><g transform="translate(66.178804, 115.065877)"><g><path d="M 34.15625 -64.4375 C 44.675781 -64.4375 52.703125 -62.039062 58.234375 -57.25 C 63.773438 -52.457031 66.546875 -45.109375 66.546875 -35.203125 L 66.546875 0 L 45.84375 0 L 45.84375 -8.1875 C 42.644531 -2.03125 36.410156 1.046875 27.140625 1.046875 C 22.222656 1.046875 17.96875 0.191406 14.375 -1.515625 C 10.789062 -3.234375 8.082031 -5.550781 6.25 -8.46875 C 4.425781 -11.394531 3.515625 -14.734375 3.515625 -18.484375 C 3.515625 -24.484375 5.8125 -29.140625 10.40625 -32.453125 C 15.007812 -35.765625 22.101562 -37.421875 31.6875 -37.421875 L 44.328125 -37.421875 C 43.929688 -44.128906 39.445312 -47.484375 30.875 -47.484375 C 27.832031 -47.484375 24.75 -46.992188 21.625 -46.015625 C 18.507812 -45.046875 15.863281 -43.703125 13.6875 -41.984375 L 6.203125 -57.078125 C 9.710938 -59.410156 13.976562 -61.21875 19 -62.5 C 24.03125 -63.789062 29.082031 -64.4375 34.15625 -64.4375 Z M 33.328125 -12.984375 C 35.898438 -12.984375 38.160156 -13.601562 40.109375 -14.84375 C 42.054688 -16.09375 43.460938 -17.925781 44.328125 -20.34375 L 44.328125 -25.84375 L 34.734375 -25.84375 C 28.265625 -25.84375 25.03125 -23.703125 25.03125 -19.421875 C 25.03125 -17.460938 25.769531 -15.898438 27.25 -14.734375 C 28.726562 -13.566406 30.753906 -12.984375 33.328125 -12.984375 Z M 33.328125 -12.984375 "/></g></g></g><g fill="#8c52ff" fill-opacity="1"><g transform="translate(127.2259, 115.065877)"><g><path d="M 28.296875 -55.78125 C 30.554688 -58.664062 33.5 -60.828125 37.125 -62.265625 C 40.757812 -63.710938 44.914062 -64.4375 49.59375 -64.4375 L 49.59375 -44.4375 C 47.5625 -44.675781 45.882812 -44.796875 44.5625 -44.796875 C 39.800781 -44.796875 36.078125 -43.507812 33.390625 -40.9375 C 30.703125 -38.363281 29.359375 -34.425781 29.359375 -29.125 L 29.359375 0 L 7.140625 0 L 7.140625 -63.390625 L 28.296875 -63.390625 Z M 28.296875 -55.78125 "/></g></g></g><g fill="#8c52ff" fill-opacity="1"><g transform="translate(166.637517, 115.065877)"><g><path d="M 47.015625 -64.4375 C 52.785156 -64.4375 58.03125 -63.109375 62.75 -60.453125 C 67.46875 -57.804688 71.207031 -54.007812 73.96875 -49.0625 C 76.738281 -44.113281 78.125 -38.363281 78.125 -31.8125 C 78.125 -25.257812 76.738281 -19.488281 73.96875 -14.5 C 71.207031 -9.507812 67.46875 -5.671875 62.75 -2.984375 C 58.03125 -0.296875 52.785156 1.046875 47.015625 1.046875 C 38.671875 1.046875 32.429688 -1.40625 28.296875 -6.3125 L 28.296875 0 L 7.140625 0 L 7.140625 -86.78125 L 29.359375 -86.78125 L 29.359375 -57.890625 C 33.640625 -62.253906 39.523438 -64.4375 47.015625 -64.4375 Z M 42.34375 -16.609375 C 46.238281 -16.609375 49.429688 -17.953125 51.921875 -20.640625 C 54.421875 -23.328125 55.671875 -27.050781 55.671875 -31.8125 C 55.671875 -36.488281 54.421875 -40.148438 51.921875 -42.796875 C 49.429688 -45.453125 46.238281 -46.78125 42.34375 -46.78125 C 38.4375 -46.78125 35.234375 -45.453125 32.734375 -42.796875 C 30.242188 -40.148438 29 -36.488281 29 -31.8125 C 29 -27.050781 30.242188 -23.328125 32.734375 -20.640625 C 35.234375 -17.953125 38.4375 -16.609375 42.34375 -16.609375 Z M 42.34375 -16.609375 "/></g></g></g><g fill="#8c52ff" fill-opacity="1"><g transform="translate(235.520131, 115.065877)"><g><path d="M 71.921875 -31.578125 C 71.921875 -31.421875 71.804688 -29.585938 71.578125 -26.078125 L 25.5 -26.078125 C 26.4375 -22.804688 28.25 -20.289062 30.9375 -18.53125 C 33.625 -16.78125 36.992188 -15.90625 41.046875 -15.90625 C 44.085938 -15.90625 46.71875 -16.332031 48.9375 -17.1875 C 51.164062 -18.050781 53.410156 -19.457031 55.671875 -21.40625 L 67.359375 -9.234375 C 61.203125 -2.378906 52.195312 1.046875 40.34375 1.046875 C 32.9375 1.046875 26.425781 -0.351562 20.8125 -3.15625 C 15.195312 -5.96875 10.847656 -9.867188 7.765625 -14.859375 C 4.691406 -19.847656 3.15625 -25.5 3.15625 -31.8125 C 3.15625 -38.050781 4.65625 -43.644531 7.65625 -48.59375 C 10.65625 -53.539062 14.804688 -57.414062 20.109375 -60.21875 C 25.410156 -63.03125 31.378906 -64.4375 38.015625 -64.4375 C 44.328125 -64.4375 50.054688 -63.128906 55.203125 -60.515625 C 60.347656 -57.910156 64.421875 -54.128906 67.421875 -49.171875 C 70.421875 -44.222656 71.921875 -38.359375 71.921875 -31.578125 Z M 38.125 -48.65625 C 34.695312 -48.65625 31.832031 -47.679688 29.53125 -45.734375 C 27.226562 -43.785156 25.765625 -41.132812 25.140625 -37.78125 L 51.109375 -37.78125 C 50.484375 -41.132812 49.019531 -43.785156 46.71875 -45.734375 C 44.414062 -47.679688 41.550781 -48.65625 38.125 -48.65625 Z M 38.125 -48.65625 "/></g></g></g><g fill="#8c52ff" fill-opacity="1"><g transform="translate(298.204494, 115.065877)"><g><path d="M 28.296875 -55.78125 C 30.554688 -58.664062 33.5 -60.828125 37.125 -62.265625 C 40.757812 -63.710938 44.914062 -64.4375 49.59375 -64.4375 L 49.59375 -44.4375 C 47.5625 -44.675781 45.882812 -44.796875 44.5625 -44.796875 C 39.800781 -44.796875 36.078125 -43.507812 33.390625 -40.9375 C 30.703125 -38.363281 29.359375 -34.425781 29.359375 -29.125 L 29.359375 0 L 7.140625 0 L 7.140625 -63.390625 L 28.296875 -63.390625 Z M 28.296875 -55.78125 "/></g></g></g></g></g></g><g clip-path="url(#fbeb2e2186)"><g clip-path="url(#36aed1b626)"><g transform="matrix(1, 0, 0, 1, 289, 81)"><g clip-path="url(#01c2350c98)"><g clip-path="url(#6b34a4ff68)"><g clip-path="url(#1873abd8fb)"><path fill="#121418" d="M 48.765625 73.078125 L 0.972656 13.308594 L 17.53125 0.0664062 L 65.324219 59.835938 Z M 48.765625 73.078125 " fill-opacity="1" fill-rule="nonzero"/></g></g></g></g></g></g><g clip-path="url(#576aab3290)"><g clip-path="url(#784ae42b27)"><g transform="matrix(1, 0, 0, 1, 277, 81)"><g clip-path="url(#617126bab9)"><g clip-path="url(#ed51c27cdd)"><g clip-path="url(#10990941ba)"><g clip-path="url(#e481cd10ea)"><path fill="#8c52ff" d="M 76.503906 60.164062 C 73.890625 56.058594 72.730469 50.804688 68.296875 48.191406 C 65.035156 46.25 60.597656 45.585938 56.949219 45.417969 C 57.050781 44.8125 57.167969 44.269531 57.261719 43.839844 C 57.542969 42.554688 57.332031 41.1875 56.746094 40.015625 C 61.671875 44.230469 65.585938 43.585938 67.242188 42.988281 C 67.726562 42.824219 68.265625 42.972656 68.5625 43.394531 C 71.050781 46.964844 76.570312 48.164062 80.839844 47.269531 C 87.621094 45.839844 97 50.488281 94.90625 58.597656 C 93.183594 65.261719 84.597656 66.867188 79.46875 63.324219 C 78.734375 63.523438 77.296875 63.808594 76.421875 63.140625 C 75.144531 62.261719 76.503906 60.164062 76.503906 60.164062 Z M 84.113281 60.980469 C 87.71875 61.886719 91.25 60.257812 91.976562 57.332031 C 92.703125 54.40625 90.351562 51.316406 86.742188 50.410156 C 83.136719 49.503906 79.605469 51.132812 78.878906 54.058594 C 78.152344 56.988281 80.503906 60.074219 84.113281 60.980469 Z M 84.113281 60.980469 " fill-opacity="1" fill-rule="nonzero"/></g></g></g><g clip-path="url(#3c4baf7012)"><g clip-path="url(#1aaba514e6)"><g clip-path="url(#74e97f716e)"><path fill="#8c52ff" d="M 45.179688 40.730469 L 15.925781 11.921875 C 15.605469 11.613281 16.007812 11.132812 16.378906 11.363281 C 20.894531 14.414062 29.589844 20.289062 37.785156 26 C 40.414062 31.394531 43.015625 36.632812 45.179688 40.730469 Z M 45.179688 40.730469 " fill-opacity="1" fill-rule="nonzero"/></g></g></g><g clip-path="url(#b9787f9316)"><g clip-path="url(#5491b6ea23)"><g clip-path="url(#0bc47649d8)"><path fill="#8c52ff" d="M 61.773438 87.898438 C 54.09375 87.960938 51.222656 78.441406 53.605469 72.1875 C 55.148438 68.121094 54.792969 62.472656 51.667969 59.488281 C 51.292969 59.136719 51.242188 58.554688 51.457031 58.121094 C 52.308594 56.539062 53.628906 52.542969 49.796875 46.765625 C 45.648438 40.503906 32.617188 12.863281 28.011719 3.050781 C 27.832031 2.652344 28.382812 2.324219 28.632812 2.679688 L 55.371094 39.863281 C 56.152344 40.960938 56.457031 42.316406 56.167969 43.632812 C 55.429688 47.15625 54.3125 54.640625 56.414062 59.980469 C 58.535156 65.355469 64.585938 67.152344 68.230469 71.179688 C 72.480469 75.882812 70.996094 84.484375 65.386719 87.125 C 65.320312 91.15625 60.328125 95.910156 58.914062 95.390625 C 57.757812 94.929688 62.179688 91.402344 61.773438 87.898438 Z M 52.269531 42.003906 C 52.742188 41.476562 52.707031 40.691406 52.171875 40.246094 C 51.648438 39.773438 50.859375 39.808594 50.414062 40.34375 C 49.96875 40.875 49.980469 41.65625 50.511719 42.101562 C 51.015625 42.539062 51.832031 42.507812 52.269531 42.003906 Z M 61.824219 84.792969 C 64.816406 84.515625 66.984375 81.304688 66.660156 77.578125 C 66.324219 73.882812 63.613281 71.074219 60.617188 71.351562 C 57.621094 71.625 55.453125 74.839844 55.78125 78.5625 C 56.113281 82.261719 58.828125 85.070312 61.824219 84.792969 Z M 61.824219 84.792969 " fill-opacity="1" fill-rule="nonzero"/></g></g></g></g></g></g></g><g transform="matrix(1, 0, 0, 1, 13, 0)"><g clip-path="url(#9349821998)"><g fill="#8c52ff" fill-opacity="1"><g transform="translate(12.801347, 60.849972)"><g><path d="M 92.765625 -32.9375 L 74.59375 15.578125 C 70.46875 26.597656 64.378906 33.742188 56.328125 37.015625 C 48.273438 40.285156 38.625 39.8125 27.375 35.59375 C 21.53125 33.40625 16.296875 30.695312 11.671875 27.46875 C 7.054688 24.25 3.441406 20.691406 0.828125 16.796875 L 13.828125 5.0625 C 15.503906 7.945312 17.972656 10.644531 21.234375 13.15625 C 24.492188 15.664062 27.914062 17.59375 31.5 18.9375 C 36.96875 20.976562 41.429688 21.269531 44.890625 19.8125 C 48.359375 18.363281 50.976562 15.265625 52.75 10.515625 L 53.5 8.546875 C 47.738281 11.710938 40.988281 11.84375 33.25 8.9375 C 27.988281 6.96875 23.570312 3.96875 20 -0.0625 C 16.4375 -4.101562 14.15625 -8.785156 13.15625 -14.109375 C 12.15625 -19.441406 12.722656 -24.957031 14.859375 -30.65625 C 16.960938 -36.269531 20.140625 -40.757812 24.390625 -44.125 C 28.648438 -47.488281 33.453125 -49.519531 38.796875 -50.21875 C 44.140625 -50.925781 49.441406 -50.296875 54.703125 -48.328125 C 63.160156 -45.148438 68.34375 -40.082031 70.25 -33.125 L 72.953125 -40.359375 Z M 44.359375 -5.734375 C 48.085938 -4.335938 51.597656 -4.3125 54.890625 -5.65625 C 58.179688 -7.007812 60.5 -9.476562 61.84375 -13.0625 C 63.175781 -16.632812 63.050781 -19.984375 61.46875 -23.109375 C 59.894531 -26.242188 57.210938 -28.519531 53.421875 -29.9375 C 49.628906 -31.363281 46.09375 -31.421875 42.8125 -30.109375 C 39.53125 -28.796875 37.222656 -26.351562 35.890625 -22.78125 C 34.546875 -19.195312 34.6875 -15.804688 36.3125 -12.609375 C 37.945312 -9.421875 40.628906 -7.128906 44.359375 -5.734375 Z M 44.359375 -5.734375 "/></g></g></g><g fill="#8c52ff" fill-opacity="1"><g transform="translate(78.400248, 85.428117)"><g><path d="M 36.09375 14.65625 C 29.738281 12.269531 24.5 8.800781 20.375 4.25 C 16.257812 -0.289062 13.632812 -5.4375 12.5 -11.1875 C 11.363281 -16.9375 11.898438 -22.769531 14.109375 -28.6875 C 16.296875 -34.519531 19.707031 -39.234375 24.34375 -42.828125 C 28.988281 -46.429688 34.332031 -48.578125 40.375 -49.265625 C 46.414062 -49.953125 52.648438 -49.085938 59.078125 -46.671875 C 65.503906 -44.265625 70.785156 -40.8125 74.921875 -36.3125 C 79.066406 -31.8125 81.691406 -26.707031 82.796875 -21 C 83.910156 -15.289062 83.359375 -9.484375 81.140625 -3.578125 C 78.929688 2.335938 75.523438 7.097656 70.921875 10.703125 C 66.328125 14.304688 60.976562 16.46875 54.875 17.1875 C 48.78125 17.90625 42.519531 17.0625 36.09375 14.65625 Z M 42.296875 -1.875 C 45.953125 -0.507812 49.414062 -0.648438 52.6875 -2.296875 C 55.96875 -3.941406 58.441406 -6.992188 60.109375 -11.453125 C 61.753906 -15.828125 61.875 -19.691406 60.46875 -23.046875 C 59.0625 -26.410156 56.53125 -28.773438 52.875 -30.140625 C 49.21875 -31.515625 45.757812 -31.394531 42.5 -29.78125 C 39.238281 -28.175781 36.785156 -25.1875 35.140625 -20.8125 C 33.472656 -16.351562 33.332031 -12.425781 34.71875 -9.03125 C 36.113281 -5.632812 38.640625 -3.25 42.296875 -1.875 Z M 42.296875 -1.875 "/></g></g></g></g></g></g></g></g></svg>