<svg xmlns="http://www.w3.org/2000/svg" xmlns:xlink="http://www.w3.org/1999/xlink" width="500" zoomAndPan="magnify" viewBox="0 0 375 299.999988" height="400" preserveAspectRatio="xMidYMid meet" version="1.0"><defs><g/><clipPath id="6f1c5ab320"><rect x="0" width="161" y="0" height="279"/></clipPath><clipPath id="c7ee4edb25"><rect x="0" width="156" y="0" height="236"/></clipPath><clipPath id="d7064bc526"><path d="M 246 146 L 332 146 L 332 235 L 246 235 Z M 246 146 " clip-rule="nonzero"/></clipPath><clipPath id="adad8bdf56"><path d="M 268.9375 146.351562 L 331.953125 213.285156 L 309.5 234.421875 L 246.484375 167.488281 Z M 268.9375 146.351562 " clip-rule="nonzero"/></clipPath><clipPath id="877cfb00c6"><path d="M 0.480469 0.160156 L 86 0.160156 L 86 88.480469 L 0.480469 88.480469 Z M 0.480469 0.160156 " clip-rule="nonzero"/></clipPath><clipPath id="d9f68a321e"><path d="M 22.9375 0.351562 L 85.953125 67.285156 L 63.5 88.421875 L 0.484375 21.488281 Z M 22.9375 0.351562 " clip-rule="nonzero"/></clipPath><clipPath id="7514b8d3f3"><rect x="0" width="86" y="0" height="89"/></clipPath><clipPath id="2e9c1a5d80"><path d="M 223 141 L 375 141 L 375 300 L 223 300 Z M 223 141 " clip-rule="nonzero"/></clipPath><clipPath id="d999350879"><path d="M 251.210938 141.40625 L 385.316406 170.613281 L 357.066406 300.324219 L 222.960938 271.117188 Z M 251.210938 141.40625 " clip-rule="nonzero"/></clipPath><clipPath id="48d663be90"><path d="M 88 62 L 149 62 L 149 103 L 88 103 Z M 88 62 " clip-rule="nonzero"/></clipPath><clipPath id="2465fcf7c5"><path d="M 28.210938 0.40625 L 162.316406 29.613281 L 134.066406 159.324219 L -0.0390625 130.117188 Z M 28.210938 0.40625 " clip-rule="nonzero"/></clipPath><clipPath id="05f9b843f3"><path d="M 162.429688 29.640625 L 28.324219 0.433594 L 0.0742188 130.140625 L 134.179688 159.347656 Z M 162.429688 29.640625 " clip-rule="nonzero"/></clipPath><clipPath id="9ae94a45c9"><path d="M 24 17 L 71 17 L 71 64 L 24 64 Z M 24 17 " clip-rule="nonzero"/></clipPath><clipPath id="df8d508921"><path d="M 28.210938 0.40625 L 162.316406 29.613281 L 134.066406 159.324219 L -0.0390625 130.117188 Z M 28.210938 0.40625 " clip-rule="nonzero"/></clipPath><clipPath id="c57ab51f0e"><path d="M 162.429688 29.640625 L 28.324219 0.433594 L 0.0742188 130.140625 L 134.179688 159.347656 Z M 162.429688 29.640625 " clip-rule="nonzero"/></clipPath><clipPath id="17e00b8c8d"><path d="M 43 4 L 111 4 L 111 150 L 43 150 Z M 43 4 " clip-rule="nonzero"/></clipPath><clipPath id="2a8041ebc7"><path d="M 28.210938 0.40625 L 162.316406 29.613281 L 134.066406 159.324219 L -0.0390625 130.117188 Z M 28.210938 0.40625 " clip-rule="nonzero"/></clipPath><clipPath id="c842ddd640"><path d="M 162.429688 29.640625 L 28.324219 0.433594 L 0.0742188 130.140625 L 134.179688 159.347656 Z M 162.429688 29.640625 " clip-rule="nonzero"/></clipPath><clipPath id="df3c431776"><rect x="0" width="152" y="0" height="159"/></clipPath></defs><g transform="matrix(1, 0, 0, 1, 174, 2)"><g clip-path="url(#6f1c5ab320)"><g fill="#8c52ff" fill-opacity="1"><g transform="translate(4.521087, 219.436177)"><g><path d="M 90.078125 -123.46875 C 101.128906 -123.46875 111.175781 -120.925781 120.21875 -115.84375 C 129.257812 -110.769531 136.429688 -103.488281 141.734375 -94 C 147.035156 -84.507812 149.6875 -73.492188 149.6875 -60.953125 C 149.6875 -48.398438 147.035156 -37.34375 141.734375 -27.78125 C 136.429688 -18.21875 129.257812 -10.859375 120.21875 -5.703125 C 111.175781 -0.554688 101.128906 2.015625 90.078125 2.015625 C 74.097656 2.015625 62.148438 -2.6875 54.234375 -12.09375 L 54.234375 0 L 13.671875 0 L 13.671875 -166.265625 L 56.25 -166.265625 L 56.25 -110.921875 C 64.457031 -119.285156 75.734375 -123.46875 90.078125 -123.46875 Z M 81.109375 -31.8125 C 88.578125 -31.8125 94.703125 -34.390625 99.484375 -39.546875 C 104.265625 -44.703125 106.65625 -51.835938 106.65625 -60.953125 C 106.65625 -69.910156 104.265625 -76.925781 99.484375 -82 C 94.703125 -87.082031 88.578125 -89.625 81.109375 -89.625 C 73.640625 -89.625 67.515625 -87.082031 62.734375 -82 C 57.960938 -76.925781 55.578125 -69.910156 55.578125 -60.953125 C 55.578125 -51.835938 57.960938 -44.703125 62.734375 -39.546875 C 67.515625 -34.390625 73.640625 -31.8125 81.109375 -31.8125 Z M 81.109375 -31.8125 "/></g></g></g></g></g><g transform="matrix(1, 0, 0, 1, 23, 0)"><g clip-path="url(#c7ee4edb25)"><g fill="#8c52ff" fill-opacity="1"><g transform="translate(3.460063, 176.922435)"><g><path d="M 144.3125 -121.453125 L 144.3125 -22.1875 C 144.3125 0.375 138.1875 17.289062 125.9375 28.5625 C 113.6875 39.84375 96.054688 45.484375 73.046875 45.484375 C 61.097656 45.484375 49.894531 44.140625 39.4375 41.453125 C 28.976562 38.765625 20.085938 34.804688 12.765625 29.578125 L 28.234375 -0.21875 C 33.160156 3.8125 39.394531 6.984375 46.9375 9.296875 C 54.488281 11.609375 61.921875 12.765625 69.234375 12.765625 C 80.441406 12.765625 88.660156 10.300781 93.890625 5.375 C 99.117188 0.445312 101.734375 -6.867188 101.734375 -16.578125 L 101.734375 -20.609375 C 93.515625 -11.054688 81.488281 -6.28125 65.65625 -6.28125 C 54.894531 -6.28125 44.957031 -8.707031 35.84375 -13.5625 C 26.738281 -18.414062 19.492188 -25.285156 14.109375 -34.171875 C 8.734375 -43.054688 6.046875 -53.328125 6.046875 -64.984375 C 6.046875 -76.484375 8.734375 -86.675781 14.109375 -95.5625 C 19.492188 -104.457031 26.738281 -111.332031 35.84375 -116.1875 C 44.957031 -121.039062 54.894531 -123.46875 65.65625 -123.46875 C 82.976562 -123.46875 95.675781 -117.863281 103.75 -106.65625 L 103.75 -121.453125 Z M 75.734375 -40.109375 C 83.359375 -40.109375 89.671875 -42.421875 94.671875 -47.046875 C 99.671875 -51.679688 102.171875 -57.660156 102.171875 -64.984375 C 102.171875 -72.304688 99.707031 -78.242188 94.78125 -82.796875 C 89.851562 -87.347656 83.503906 -89.625 75.734375 -89.625 C 67.972656 -89.625 61.585938 -87.347656 56.578125 -82.796875 C 51.578125 -78.242188 49.078125 -72.304688 49.078125 -64.984375 C 49.078125 -57.660156 51.613281 -51.679688 56.6875 -47.046875 C 61.769531 -42.421875 68.117188 -40.109375 75.734375 -40.109375 Z M 75.734375 -40.109375 "/></g></g></g></g></g><g clip-path="url(#d7064bc526)"><g clip-path="url(#adad8bdf56)"><g transform="matrix(1, 0, 0, 1, 246, 146)"><g clip-path="url(#7514b8d3f3)"><g clip-path="url(#877cfb00c6)"><g clip-path="url(#d9f68a321e)"><path fill="#121418" d="M 22.9375 0.351562 L 85.9375 67.265625 L 63.484375 88.40625 L 0.484375 21.488281 Z M 22.9375 0.351562 " fill-opacity="1" fill-rule="nonzero"/></g></g></g></g></g></g><g clip-path="url(#2e9c1a5d80)"><g clip-path="url(#d999350879)"><g transform="matrix(1, 0, 0, 1, 223, 141)"><g clip-path="url(#df3c431776)"><g clip-path="url(#48d663be90)"><g clip-path="url(#2465fcf7c5)"><g clip-path="url(#05f9b843f3)"><path fill="#8c52ff" d="M 119.546875 94.371094 C 115.464844 87.953125 113.648438 79.734375 106.714844 75.644531 C 101.609375 72.613281 94.671875 71.570312 88.964844 71.3125 C 89.125 70.363281 89.308594 69.511719 89.453125 68.84375 C 89.894531 66.828125 89.5625 64.695312 88.648438 62.855469 C 96.347656 69.453125 102.472656 68.445312 105.066406 67.511719 C 105.824219 67.253906 106.664062 67.484375 107.128906 68.148438 C 111.019531 73.726562 119.652344 75.605469 126.328125 74.203125 C 136.9375 71.96875 151.609375 79.238281 148.332031 91.925781 C 145.640625 102.347656 132.207031 104.859375 124.1875 99.316406 C 123.039062 99.628906 120.789062 100.074219 119.421875 99.027344 C 117.425781 97.65625 119.546875 94.371094 119.546875 94.371094 Z M 131.449219 95.652344 C 137.089844 97.066406 142.613281 94.519531 143.75 89.941406 C 144.886719 85.367188 141.207031 80.535156 135.566406 79.117188 C 129.925781 77.703125 124.402344 80.25 123.265625 84.828125 C 122.128906 89.402344 125.808594 94.234375 131.449219 95.652344 Z M 131.449219 95.652344 " fill-opacity="1" fill-rule="nonzero"/></g></g></g><g clip-path="url(#9ae94a45c9)"><g clip-path="url(#df8d508921)"><g clip-path="url(#c57ab51f0e)"><path fill="#8c52ff" d="M 70.554688 63.976562 L 24.804688 18.921875 C 24.300781 18.4375 24.933594 17.683594 25.511719 18.042969 C 32.578125 22.816406 46.175781 32.007812 58.988281 40.9375 C 63.101562 49.375 67.171875 57.570312 70.554688 63.976562 Z M 70.554688 63.976562 " fill-opacity="1" fill-rule="nonzero"/></g></g></g><g clip-path="url(#17e00b8c8d)"><g clip-path="url(#2a8041ebc7)"><g clip-path="url(#c842ddd640)"><path fill="#8c52ff" d="M 96.515625 137.75 C 84.5 137.851562 80.011719 122.957031 83.734375 113.179688 C 86.148438 106.820312 85.589844 97.984375 80.707031 93.3125 C 80.121094 92.765625 80.039062 91.855469 80.375 91.179688 C 81.707031 88.707031 83.773438 82.457031 77.777344 73.417969 C 71.289062 63.621094 50.910156 20.390625 43.707031 5.046875 C 43.421875 4.425781 44.285156 3.910156 44.679688 4.464844 L 86.5 62.625 C 87.71875 64.339844 88.195312 66.460938 87.746094 68.515625 C 86.59375 74.027344 84.839844 85.734375 88.125 94.085938 C 91.449219 102.492188 100.910156 105.304688 106.613281 111.605469 C 113.257812 118.953125 110.933594 132.410156 102.164062 136.542969 C 102.058594 142.84375 94.253906 150.28125 92.039062 149.472656 C 90.230469 148.75 97.148438 143.230469 96.515625 137.75 Z M 81.648438 65.96875 C 82.386719 65.148438 82.328125 63.917969 81.496094 63.21875 C 80.675781 62.480469 79.441406 62.539062 78.746094 63.371094 C 78.050781 64.203125 78.066406 65.425781 78.898438 66.121094 C 79.683594 66.808594 80.960938 66.757812 81.648438 65.96875 Z M 96.585938 132.894531 C 101.273438 132.460938 104.664062 127.4375 104.152344 121.609375 C 103.628906 115.828125 99.386719 111.4375 94.703125 111.867188 C 90.015625 112.300781 86.625 117.324219 87.136719 123.152344 C 87.660156 128.933594 91.902344 133.324219 96.585938 132.894531 Z M 96.585938 132.894531 " fill-opacity="1" fill-rule="nonzero"/></g></g></g></g></g></g></g></svg>